<mxfile host="app.diagrams.net" modified="2023-03-24T04:27:16.877Z" agent="Mozilla/5.0 (Windows NT 10.0; Win64; x64) AppleWebKit/537.36 (KHTML, like Gecko) Chrome/110.0.0.0 Safari/537.36 OPR/96.0.0.0" version="21.1.0" etag="AomV9LM8PX9BdSQfzGZT" type="github">
  <diagram name="Page-1" id="97b8_1AfGCbqrsBx0glM">
    <mxGraphModel>
      <root>
        <mxCell id="0" />
        <mxCell id="1" parent="0" />
      </root>
    </mxGraphModel>
  </diagram>
</mxfile>
